<?xml version="1.0" encoding="utf-8"?>
<!-- Generator: Adobe Illustrator 22.1.0, SVG Export Plug-In . SVG Version: 6.00 Build 0)  -->
<svg version="1.1" xmlns="http://www.w3.org/2000/svg" xmlns:xlink="http://www.w3.org/1999/xlink" x="0px" y="0px"
	 viewBox="0 0 1050.5 547.3" style="enable-background:new 0 0 1050.5 547.3;" xml:space="preserve">
<style type="text/css">
	.st0{display:none;}
	.st1{fill:#4C4C4C;}
	.st2{fill:#FFFFFF;}
	.st3{fill:#FFFFFF;stroke:#4C4C4C;stroke-miterlimit:10;}
	.st4{fill:#4C4C4C;stroke:#FFFFFF;stroke-width:0.5;stroke-miterlimit:10;}
	.st5{font-family:'Karla-Bold';}
	.st6{font-size:9px;}
	.st7{fill:#1D1D1B;}
</style>
<g id="Calque_1" class="st0">
</g>
<g id="Calque_6">
</g>
<g id="Calque_6_-_copie">
</g>
<g id="Calque_4">
</g>
<g id="Calque_3">
</g>
<g id="Calque_2">
	<path class="st1" d="M341.4,198.7l-10.9-0.1c-0.8,0-1.5-0.7-1.5-1.5l0-4.3c0-0.8,0.7-1.5,1.5-1.5l10.9,0.1c0.8,0,1.5,0.7,1.5,1.5
		l0,4.3C343,198,342.3,198.7,341.4,198.7z"/>
	<path class="st1" d="M358.5,198.8l-10.9-0.1c-0.8,0-1.5-0.7-1.5-1.5l0-4.3c0-0.8,0.7-1.5,1.5-1.5l10.9,0.1c0.8,0,1.5,0.7,1.5,1.5
		l0,4.3C360,198.1,359.3,198.8,358.5,198.8z"/>
	<path class="st1" d="M375.6,198.9l-10.9-0.1c-0.8,0-1.5-0.7-1.5-1.5l0-4.3c0-0.8,0.7-1.5,1.5-1.5l10.9,0.1c0.8,0,1.5,0.7,1.5,1.5
		l0,4.3C377.1,198.2,376.4,198.9,375.6,198.9z"/>
	<path class="st1" d="M392.6,199l-10.9-0.1c-0.8,0-1.5-0.7-1.5-1.5l0-4.3c0-0.8,0.7-1.5,1.5-1.5l10.9,0.1c0.8,0,1.5,0.7,1.5,1.5
		l0,4.3C394.2,198.4,393.5,199,392.6,199z"/>
	<path class="st1" d="M409.7,199.2l-10.9-0.1c-0.8,0-1.5-0.7-1.5-1.5l0-4.3c0-0.8,0.7-1.5,1.5-1.5l10.9,0.1c0.8,0,1.5,0.7,1.5,1.5
		l0,4.3C411.2,198.5,410.5,199.2,409.7,199.2z"/>
	<path class="st1" d="M426.8,199.3l-10.9-0.1c-0.8,0-1.5-0.7-1.5-1.5l0-4.3c0-0.8,0.7-1.5,1.5-1.5l10.9,0.1c0.8,0,1.5,0.7,1.5,1.5
		l0,4.3C428.3,198.6,427.6,199.3,426.8,199.3z"/>
	<path class="st1" d="M443.8,199.4l-10.9-0.1c-0.8,0-1.5-0.7-1.5-1.5l0-4.3c0-0.8,0.7-1.5,1.5-1.5l10.9,0.1c0.8,0,1.5,0.7,1.5,1.5
		l0,4.3C445.4,198.7,444.7,199.4,443.8,199.4z"/>
	<path class="st1" d="M460.9,199.5l-10.9-0.1c-0.8,0-1.5-0.7-1.5-1.5l0-4.3c0-0.8,0.7-1.5,1.5-1.5l10.9,0.1c0.8,0,1.5,0.7,1.5,1.5
		l0,4.3C462.4,198.8,461.7,199.5,460.9,199.5z"/>
	<path class="st1" d="M478,199.6l-10.9-0.1c-0.8,0-1.5-0.7-1.5-1.5l0-4.3c0-0.8,0.7-1.5,1.5-1.5l10.9,0.1c0.8,0,1.5,0.7,1.5,1.5
		l0,4.3C479.5,199,478.8,199.6,478,199.6z"/>
	<path class="st1" d="M563.3,200.2l-10.9-0.1c-0.8,0-1.5-0.7-1.5-1.5l0-4.3c0-0.8,0.7-1.5,1.5-1.5l10.9,0.1c0.8,0,1.5,0.7,1.5,1.5
		l0,4.3C564.8,199.5,564.1,200.2,563.3,200.2z"/>
	<path class="st1" d="M546.2,200.1l-10.9-0.1c-0.8,0-1.5-0.7-1.5-1.5l0-4.3c0-0.8,0.7-1.5,1.5-1.5l10.9,0.1c0.8,0,1.5,0.7,1.5,1.5
		l0,4.3C547.7,199.4,547,200.1,546.2,200.1z"/>
	<path class="st1" d="M529.1,200l-10.9-0.1c-0.8,0-1.5-0.7-1.5-1.5l0-4.3c0-0.8,0.7-1.5,1.5-1.5l10.9,0.1c0.8,0,1.5,0.7,1.5,1.5
		l0,4.3C530.7,199.3,530,200,529.1,200z"/>
	<path class="st1" d="M512.1,199.9l-10.9-0.1c-0.8,0-1.5-0.7-1.5-1.5l0-4.3c0-0.8,0.7-1.5,1.5-1.5l10.9,0.1c0.8,0,1.5,0.7,1.5,1.5
		l0,4.3C513.6,199.2,512.9,199.9,512.1,199.9z"/>
	<path class="st1" d="M495,199.7l-10.9-0.1c-0.8,0-1.5-0.7-1.5-1.5l0-4.3c0-0.8,0.7-1.5,1.5-1.5l10.9,0.1c0.8,0,1.5,0.7,1.5,1.5
		l0,4.3C496.5,199.1,495.9,199.8,495,199.7z"/>
	<path class="st1" d="M476.2,282.5l-76.7-0.4c-0.7,0-1.2-0.6-1.2-1.2l0.1-12c0-0.7,0.6-1.2,1.2-1.2l76.7,0.4c0.7,0,1.2,0.6,1.2,1.2
		l-0.1,12C477.4,282,476.9,282.5,476.2,282.5z"/>
	<path class="st2" d="M779.9,251.5c0,0-4.7,13.9-11.5,13.6l11.8,1.7h3l0.2-5.9L779.9,251.5z"/>
	<path class="st1" d="M341.3,215.1l-10.9-0.1c-0.8,0-1.5-0.7-1.5-1.5l0.1-11c0-0.8,0.7-1.5,1.5-1.5l10.9,0.1c0.8,0,1.5,0.7,1.5,1.5
		l-0.1,11C342.9,214.4,342.2,215.1,341.3,215.1z"/>
	<path class="st1" d="M340.9,281.5l-10.9-0.1c-0.8,0-1.5-0.7-1.5-1.5l0.1-11c0-0.8,0.7-1.5,1.5-1.5l10.9,0.1c0.8,0,1.5,0.7,1.5,1.5
		l-0.1,11C342.4,280.8,341.7,281.5,340.9,281.5z"/>
	<path class="st1" d="M357.3,281.6l-10.9-0.1c-0.8,0-1.5-0.7-1.5-1.5l0.1-11c0-0.8,0.7-1.5,1.5-1.5l10.9,0.1c0.8,0,1.5,0.7,1.5,1.5
		l-0.1,11C358.8,280.9,358.1,281.6,357.3,281.6z"/>
	<path class="st1" d="M373.7,281.7l-10.9-0.1c-0.8,0-1.5-0.7-1.5-1.5l0.1-11c0-0.8,0.7-1.5,1.5-1.5l10.9,0.1c0.8,0,1.5,0.7,1.5,1.5
		l-0.1,11C375.2,281,374.6,281.7,373.7,281.7z"/>
	<path class="st1" d="M512.9,282.7l-10.9-0.1c-0.8,0-1.5-0.7-1.5-1.5l0.1-11c0-0.8,0.7-1.5,1.5-1.5l10.9,0.1c0.8,0,1.5,0.7,1.5,1.5
		l-0.1,11C514.4,282,513.7,282.7,512.9,282.7z"/>
	<path class="st1" d="M529.3,282.8l-10.9-0.1c-0.8,0-1.5-0.7-1.5-1.5l0.1-11c0-0.8,0.7-1.5,1.5-1.5l10.9,0.1c0.8,0,1.5,0.7,1.5,1.5
		l-0.1,11C530.9,282.1,530.2,282.8,529.3,282.8z"/>
	<path class="st1" d="M545.8,282.9l-10.9-0.1c-0.8,0-1.5-0.7-1.5-1.5l0.1-11c0-0.8,0.7-1.5,1.5-1.5l10.9,0.1c0.8,0,1.5,0.7,1.5,1.5
		l-0.1,11C547.3,282.2,546.6,282.9,545.8,282.9z"/>
	<path class="st1" d="M562.2,283l-10.9-0.1c-0.8,0-1.5-0.7-1.5-1.5l0.1-11c0-0.8,0.7-1.5,1.5-1.5l10.9,0.1c0.8,0,1.5,0.7,1.5,1.5
		l-0.1,11C563.7,282.3,563,283,562.2,283z"/>
	<path class="st1" d="M394.3,281.8l-15-0.1c-0.8,0-1.5-0.7-1.5-1.5l0.1-11c0-0.8,0.7-1.5,1.5-1.5l15,0.1c0.8,0,1.5,0.7,1.5,1.5
		l-0.1,11C395.8,281.2,395.1,281.8,394.3,281.8z"/>
	<path class="st1" d="M496.5,282.5l-15-0.1c-0.8,0-1.5-0.7-1.5-1.5l0.1-11c0-0.8,0.7-1.5,1.5-1.5l15,0.1c0.8,0,1.5,0.7,1.5,1.5
		l-0.1,11C498,281.9,497.3,282.6,496.5,282.5z"/>
	<path class="st1" d="M348.8,231.9l-18.5-0.1c-0.8,0-1.5-0.7-1.5-1.5l0.1-11c0-0.8,0.7-1.5,1.5-1.5l18.5,0.1c0.8,0,1.5,0.7,1.5,1.5
		l-0.1,11C350.4,231.2,349.7,231.9,348.8,231.9z"/>
	<path class="st1" d="M343.9,264.8l-13.8-0.1c-0.8,0-1.5-0.7-1.5-1.5l0.1-11c0-0.8,0.7-1.5,1.5-1.5l13.8,0.1c0.8,0,1.5,0.7,1.5,1.5
		l-0.1,11C345.4,264.1,344.8,264.8,343.9,264.8z"/>
	<path class="st1" d="M352.6,248l-22.4-0.2c-0.8,0-1.5-0.7-1.5-1.5l0.1-11c0-0.8,0.7-1.5,1.5-1.5l22.4,0.2c0.8,0,1.5,0.7,1.5,1.5
		l-0.1,11C354.2,247.3,353.5,248,352.6,248z"/>
	<path class="st1" d="M357.7,215.2l-10.9-0.1c-0.8,0-1.5-0.7-1.5-1.5l0.1-11c0-0.8,0.7-1.5,1.5-1.5l10.9,0.1c0.8,0,1.5,0.7,1.5,1.5
		l-0.1,11C359.3,214.5,358.6,215.2,357.7,215.2z"/>
	<path class="st1" d="M374.2,215.3l-10.9-0.1c-0.8,0-1.5-0.7-1.5-1.5l0.1-11c0-0.8,0.7-1.5,1.5-1.5l10.9,0.1c0.8,0,1.5,0.7,1.5,1.5
		l-0.1,11C375.7,214.6,375,215.3,374.2,215.3z"/>
	<path class="st1" d="M390.6,215.4l-10.9-0.1c-0.8,0-1.5-0.7-1.5-1.5l0.1-11c0-0.8,0.7-1.5,1.5-1.5l10.9,0.1c0.8,0,1.5,0.7,1.5,1.5
		l-0.1,11C392.1,214.7,391.4,215.4,390.6,215.4z"/>
	<path class="st1" d="M407,215.5l-10.9-0.1c-0.8,0-1.5-0.7-1.5-1.5l0.1-11c0-0.8,0.7-1.5,1.5-1.5l10.9,0.1c0.8,0,1.5,0.7,1.5,1.5
		l-0.1,11C408.5,214.9,407.8,215.5,407,215.5z"/>
	<path class="st1" d="M423.4,215.6l-10.9-0.1c-0.8,0-1.5-0.7-1.5-1.5l0.1-11c0-0.8,0.7-1.5,1.5-1.5l10.9,0.1c0.8,0,1.5,0.7,1.5,1.5
		l-0.1,11C424.9,215,424.3,215.7,423.4,215.6z"/>
	<path class="st1" d="M439.8,215.8l-10.9-0.1c-0.8,0-1.5-0.7-1.5-1.5l0.1-11c0-0.8,0.7-1.5,1.5-1.5l10.9,0.1c0.8,0,1.5,0.7,1.5,1.5
		l-0.1,11C441.4,215.1,440.7,215.8,439.8,215.8z"/>
	<path class="st1" d="M456.2,215.9l-10.9-0.1c-0.8,0-1.5-0.7-1.5-1.5l0.1-11c0-0.8,0.7-1.5,1.5-1.5l10.9,0.1c0.8,0,1.5,0.7,1.5,1.5
		l-0.1,11C457.8,215.2,457.1,215.9,456.2,215.9z"/>
	<path class="st1" d="M472.7,216l-10.9-0.1c-0.8,0-1.5-0.7-1.5-1.5l0.1-11c0-0.8,0.7-1.5,1.5-1.5l10.9,0.1c0.8,0,1.5,0.7,1.5,1.5
		l-0.1,11C474.2,215.3,473.5,216,472.7,216z"/>
	<path class="st1" d="M489.1,216.1l-10.9-0.1c-0.8,0-1.5-0.7-1.5-1.5l0.1-11c0-0.8,0.7-1.5,1.5-1.5l10.9,0.1c0.8,0,1.5,0.7,1.5,1.5
		l-0.1,11C490.6,215.4,489.9,216.1,489.1,216.1z"/>
	<path class="st1" d="M505.5,216.2l-10.9-0.1c-0.8,0-1.5-0.7-1.5-1.5l0.1-11c0-0.8,0.7-1.5,1.5-1.5l10.9,0.1c0.8,0,1.5,0.7,1.5,1.5
		l-0.1,11C507,215.5,506.3,216.2,505.5,216.2z"/>
	<path class="st1" d="M521.9,216.3l-10.9-0.1c-0.8,0-1.5-0.7-1.5-1.5l0.1-11c0-0.8,0.7-1.5,1.5-1.5l10.9,0.1c0.8,0,1.5,0.7,1.5,1.5
		l-0.1,11C523.4,215.7,522.7,216.3,521.9,216.3z"/>
	<path class="st1" d="M538.3,216.4l-10.9-0.1c-0.8,0-1.5-0.7-1.5-1.5l0.1-11c0-0.8,0.7-1.5,1.5-1.5l10.9,0.1c0.8,0,1.5,0.7,1.5,1.5
		l-0.1,11C539.9,215.8,539.2,216.5,538.3,216.4z"/>
	<path class="st1" d="M365.7,232l-10.9-0.1c-0.8,0-1.5-0.7-1.5-1.5l0.1-11c0-0.8,0.7-1.5,1.5-1.5l10.9,0.1c0.8,0,1.5,0.7,1.5,1.5
		l-0.1,11C367.2,231.3,366.5,232,365.7,232z"/>
	<path class="st1" d="M382,232.1l-10.9-0.1c-0.8,0-1.5-0.7-1.5-1.5l0.1-11c0-0.8,0.7-1.5,1.5-1.5l10.9,0.1c0.8,0,1.5,0.7,1.5,1.5
		l-0.1,11C383.5,231.5,382.8,232.1,382,232.1z"/>
	<path class="st1" d="M398.3,232.2l-10.9-0.1c-0.8,0-1.5-0.7-1.5-1.5l0.1-11c0-0.8,0.7-1.5,1.5-1.5l10.9,0.1c0.8,0,1.5,0.7,1.5,1.5
		l-0.1,11C399.8,231.6,399.1,232.3,398.3,232.2z"/>
	<path class="st1" d="M414.6,232.4l-10.9-0.1c-0.8,0-1.5-0.7-1.5-1.5l0.1-11c0-0.8,0.7-1.5,1.5-1.5l10.9,0.1c0.8,0,1.5,0.7,1.5,1.5
		l-0.1,11C416.1,231.7,415.4,232.4,414.6,232.4z"/>
	<path class="st1" d="M430.9,232.5l-10.9-0.1c-0.8,0-1.5-0.7-1.5-1.5l0.1-11c0-0.8,0.7-1.5,1.5-1.5l10.9,0.1c0.8,0,1.5,0.7,1.5,1.5
		l-0.1,11C432.4,231.8,431.7,232.5,430.9,232.5z"/>
	<path class="st1" d="M447.2,232.6l-10.9-0.1c-0.8,0-1.5-0.7-1.5-1.5l0.1-11c0-0.8,0.7-1.5,1.5-1.5l10.9,0.1c0.8,0,1.5,0.7,1.5,1.5
		l-0.1,11C448.7,231.9,448,232.6,447.2,232.6z"/>
	<path class="st1" d="M463.4,232.7l-10.9-0.1c-0.8,0-1.5-0.7-1.5-1.5l0.1-11c0-0.8,0.7-1.5,1.5-1.5l10.9,0.1c0.8,0,1.5,0.7,1.5,1.5
		l-0.1,11C465,232,464.3,232.7,463.4,232.7z"/>
	<path class="st1" d="M479.7,232.8l-10.9-0.1c-0.8,0-1.5-0.7-1.5-1.5l0.1-11c0-0.8,0.7-1.5,1.5-1.5l10.9,0.1c0.8,0,1.5,0.7,1.5,1.5
		l-0.1,11C481.3,232.1,480.6,232.8,479.7,232.8z"/>
	<path class="st1" d="M496,232.9l-10.9-0.1c-0.8,0-1.5-0.7-1.5-1.5l0.1-11c0-0.8,0.7-1.5,1.5-1.5l10.9,0.1c0.8,0,1.5,0.7,1.5,1.5
		l-0.1,11C497.5,232.3,496.9,232.9,496,232.9z"/>
	<path class="st1" d="M512.3,233l-10.9-0.1c-0.8,0-1.5-0.7-1.5-1.5l0.1-11c0-0.8,0.7-1.5,1.5-1.5l10.9,0.1c0.8,0,1.5,0.7,1.5,1.5
		l-0.1,11C513.8,232.4,513.1,233,512.3,233z"/>
	<path class="st1" d="M528.6,233.2l-10.9-0.1c-0.8,0-1.5-0.7-1.5-1.5l0.1-11c0-0.8,0.7-1.5,1.5-1.5l10.9,0.1c0.8,0,1.5,0.7,1.5,1.5
		l-0.1,11C530.1,232.5,529.4,233.2,528.6,233.2z"/>
	<path class="st1" d="M544.9,233.3l-10.9-0.1c-0.8,0-1.5-0.7-1.5-1.5l0.1-11c0-0.8,0.7-1.5,1.5-1.5l10.9,0.1c0.8,0,1.5,0.7,1.5,1.5
		l-0.1,11C546.4,232.6,545.7,233.3,544.9,233.3z"/>
	<path class="st1" d="M369.3,248.1l-10.9-0.1c-0.8,0-1.5-0.7-1.5-1.5l0.1-11c0-0.8,0.7-1.5,1.5-1.5l10.9,0.1c0.8,0,1.5,0.7,1.5,1.5
		l-0.1,11C370.8,247.4,370.1,248.1,369.3,248.1z"/>
	<path class="st1" d="M385.7,248.2l-10.9-0.1c-0.8,0-1.5-0.7-1.5-1.5l0.1-11c0-0.8,0.7-1.5,1.5-1.5l10.9,0.1c0.8,0,1.5,0.7,1.5,1.5
		l-0.1,11C387.2,247.5,386.5,248.2,385.7,248.2z"/>
	<path class="st1" d="M402.1,248.3l-10.9-0.1c-0.8,0-1.5-0.7-1.5-1.5l0.1-11c0-0.8,0.7-1.5,1.5-1.5l10.9,0.1c0.8,0,1.5,0.7,1.5,1.5
		l-0.1,11C403.6,247.6,402.9,248.3,402.1,248.3z"/>
	<path class="st1" d="M418.5,248.4l-10.9-0.1c-0.8,0-1.5-0.7-1.5-1.5l0.1-11c0-0.8,0.7-1.5,1.5-1.5l10.9,0.1c0.8,0,1.5,0.7,1.5,1.5
		l-0.1,11C420,247.8,419.3,248.4,418.5,248.4z"/>
	<path class="st1" d="M434.8,248.5l-10.9-0.1c-0.8,0-1.5-0.7-1.5-1.5l0.1-11c0-0.8,0.7-1.5,1.5-1.5l10.9,0.1c0.8,0,1.5,0.7,1.5,1.5
		l-0.1,11C436.4,247.9,435.7,248.5,434.8,248.5z"/>
	<path class="st1" d="M467.6,248.8l-10.9-0.1c-0.8,0-1.5-0.7-1.5-1.5l0.1-11c0-0.8,0.7-1.5,1.5-1.5l10.9,0.1c0.8,0,1.5,0.7,1.5,1.5
		l-0.1,11C469.1,248.1,468.4,248.8,467.6,248.8z"/>
	<path class="st1" d="M451.2,248.7l-10.9-0.1c-0.8,0-1.5-0.7-1.5-1.5l0.1-11c0-0.8,0.7-1.5,1.5-1.5l10.9,0.1c0.8,0,1.5,0.7,1.5,1.5
		l-0.1,11C452.8,248,452.1,248.7,451.2,248.7z"/>
	<path class="st1" d="M484,248.9l-10.9-0.1c-0.8,0-1.5-0.7-1.5-1.5l0.1-11c0-0.8,0.7-1.5,1.5-1.5l10.9,0.1c0.8,0,1.5,0.7,1.5,1.5
		l-0.1,11C485.5,248.2,484.8,248.9,484,248.9z"/>
	<path class="st1" d="M500.4,249l-10.9-0.1c-0.8,0-1.5-0.7-1.5-1.5l0.1-11c0-0.8,0.7-1.5,1.5-1.5l10.9,0.1c0.8,0,1.5,0.7,1.5,1.5
		l-0.1,11C501.9,248.3,501.2,249,500.4,249z"/>
	<path class="st1" d="M516.8,249.1l-10.9-0.1c-0.8,0-1.5-0.7-1.5-1.5l0.1-11c0-0.8,0.7-1.5,1.5-1.5l10.9,0.1c0.8,0,1.5,0.7,1.5,1.5
		l-0.1,11C518.3,248.4,517.6,249.1,516.8,249.1z"/>
	<path class="st1" d="M533.1,249.2l-10.9-0.1c-0.8,0-1.5-0.7-1.5-1.5l0.1-11c0-0.8,0.7-1.5,1.5-1.5l10.9,0.1c0.8,0,1.5,0.7,1.5,1.5
		l-0.1,11C534.7,248.6,534,249.2,533.1,249.2z"/>
	<path class="st1" d="M360.8,264.9l-10.9-0.1c-0.8,0-1.5-0.7-1.5-1.5l0.1-11c0-0.8,0.7-1.5,1.5-1.5l10.9,0.1c0.8,0,1.5,0.7,1.5,1.5
		l-0.1,11C362.3,264.2,361.6,264.9,360.8,264.9z"/>
	<path class="st1" d="M377.4,265l-10.9-0.1c-0.8,0-1.5-0.7-1.5-1.5l0.1-11c0-0.8,0.7-1.5,1.5-1.5l10.9,0.1c0.8,0,1.5,0.7,1.5,1.5
		l-0.1,11C378.9,264.4,378.2,265,377.4,265z"/>
	<path class="st1" d="M394,265.1l-10.9-0.1c-0.8,0-1.5-0.7-1.5-1.5l0.1-11c0-0.8,0.7-1.5,1.5-1.5l10.9,0.1c0.8,0,1.5,0.7,1.5,1.5
		l-0.1,11C395.5,264.5,394.8,265.1,394,265.1z"/>
	<path class="st1" d="M410.5,265.3l-10.9-0.1c-0.8,0-1.5-0.7-1.5-1.5l0.1-11c0-0.8,0.7-1.5,1.5-1.5l10.9,0.1c0.8,0,1.5,0.7,1.5,1.5
		l-0.1,11C412.1,264.6,411.4,265.3,410.5,265.3z"/>
	<path class="st1" d="M427.1,265.4l-10.9-0.1c-0.8,0-1.5-0.7-1.5-1.5l0.1-11c0-0.8,0.7-1.5,1.5-1.5l10.9,0.1c0.8,0,1.5,0.7,1.5,1.5
		l-0.1,11C428.7,264.7,428,265.4,427.1,265.4z"/>
	<path class="st1" d="M443.7,265.5l-10.9-0.1c-0.8,0-1.5-0.7-1.5-1.5l0.1-11c0-0.8,0.7-1.5,1.5-1.5l10.9,0.1c0.8,0,1.5,0.7,1.5,1.5
		l-0.1,11C445.3,264.8,444.6,265.5,443.7,265.5z"/>
	<path class="st1" d="M460.3,265.6l-10.9-0.1c-0.8,0-1.5-0.7-1.5-1.5l0.1-11c0-0.8,0.7-1.5,1.5-1.5l10.9,0.1c0.8,0,1.5,0.7,1.5,1.5
		l-0.1,11C461.9,264.9,461.2,265.6,460.3,265.6z"/>
	<path class="st1" d="M476.9,265.7l-10.9-0.1c-0.8,0-1.5-0.7-1.5-1.5l0.1-11c0-0.8,0.7-1.5,1.5-1.5l10.9,0.1c0.8,0,1.5,0.7,1.5,1.5
		l-0.1,11C478.5,265,477.8,265.7,476.9,265.7z"/>
	<path class="st1" d="M493.5,265.8l-10.9-0.1c-0.8,0-1.5-0.7-1.5-1.5l0.1-11c0-0.8,0.7-1.5,1.5-1.5l10.9,0.1c0.8,0,1.5,0.7,1.5,1.5
		l-0.1,11C495.1,265.2,494.4,265.8,493.5,265.8z"/>
	<path class="st1" d="M510.1,266l-10.9-0.1c-0.8,0-1.5-0.7-1.5-1.5l0.1-11c0-0.8,0.7-1.5,1.5-1.5l10.9,0.1c0.8,0,1.5,0.7,1.5,1.5
		l-0.1,11C511.7,265.3,511,266,510.1,266z"/>
	<path class="st1" d="M526.7,266.1l-10.9-0.1c-0.8,0-1.5-0.7-1.5-1.5l0.1-11c0-0.8,0.7-1.5,1.5-1.5l10.9,0.1c0.8,0,1.5,0.7,1.5,1.5
		l-0.1,11C528.3,265.4,527.6,266.1,526.7,266.1z"/>
	<path class="st1" d="M549.5,249.3l-10.9-0.1c-0.8,0-1.5-0.7-1.5-1.5l0.1-11c0-0.8,0.7-1.5,1.5-1.5l10.9,0.1c0.8,0,1.5,0.7,1.5,1.5
		l-0.1,11C551.1,248.7,550.4,249.3,549.5,249.3z"/>
	<path class="st1" d="M563.1,216.6l-19.7-0.1c-0.8,0-1.5-0.7-1.5-1.5l0.1-11c0-0.8,0.7-1.5,1.5-1.5l19.7,0.1c0.8,0,1.5,0.7,1.5,1.5
		l-0.1,11C564.7,215.9,564,216.6,563.1,216.6z"/>
	<path class="st1" d="M562.8,266.3l-30.5-0.2c-0.8,0-1.5-0.7-1.5-1.5l0.1-11c0-0.8,0.7-1.5,1.5-1.5l30.5,0.2c0.8,0,1.5,0.7,1.5,1.5
		l-0.1,11C564.3,265.6,563.6,266.3,562.8,266.3z"/>
	<path class="st1" d="M563,233.2l-12.7-0.1c-0.8,0-1.5-0.7-1.5-1.5l0.1-11c0-0.8,0.7-1.5,1.5-1.5l12.7,0.1c0.8,0,1.5,0.7,1.5,1.5
		l-0.1,11C564.6,232.5,563.9,233.2,563,233.2z"/>
	<path class="st1" d="M562.9,249.4l-7.2-0.1c-0.8,0-1.5-0.7-1.5-1.5l0.2-22c0-0.8,0.7-1.5,1.5-1.5l7.2,0.1c0.8,0,1.5,0.7,1.5,1.5
		l-0.2,22C564.4,248.7,563.8,249.4,562.9,249.4z"/>
	
		<rect x="668.7" y="312.8" transform="matrix(0.997 7.784279e-02 -7.784279e-02 0.997 28.2172 -54.0065)" class="st3" width="76.3" height="44.3"/>
	
		<rect x="712" y="256" transform="matrix(0.9969 -7.885061e-02 7.885061e-02 0.9969 -20.4794 60.0487)" class="st3" width="76.3" height="66.8"/>
	<rect x="714" y="253" class="st4" width="76.3" height="66.8"/>
	
		<rect x="729.6" y="234.3" transform="matrix(0.9382 -0.3462 0.3462 0.9382 -45.1859 282.3181)" class="st3" width="76.3" height="66.8"/>
	<g>
		<path class="st4" d="M975.4,52.7c-23.3-22.6-54.9-30.5-86.6-33.3c-17.1-1.5-38.1-2.9-55.2,0.4c-15.1,3-28.9,11.8-35,26.5
			c-1,2.3-1.3,8.7-2.6,10.4c-2.2,2.8-9.7,7.4-12.8,9.3c-7,4.4-15.9,4.7-21.6,11.2c-9.1,10.5,0.9,12.8,9,16.5c2.2,0,4.5-0.1,6.8-0.1
			c3.2,0,6.5,0,9.7,0.9c1.6,0.5,3.2,1.2,4.4,2.5c1.2,1.2,1.9,2.8,2,4.4c-0.5-1.5-1.4-2.8-2.6-3.7c-1.2-0.9-2.6-1.4-4.1-1.7
			c-1.5-0.3-3-0.4-4.6-0.4c-1.6,0-3.1,0-4.7,0c-1.1,0-2.1,0-3.2,0c9.4,5.7,7.5,8.7,11.1,17.4c3.1,7.5,11.8,7.3,15.3,12.6
			c0.2,0.3,0.3,0.8,0.4,1.4l5.8,5.4c1.4,1.3,2.8,2.7,4.1,4.1c0.7,0.7,1.3,1.5,1.9,2.3c0.6,0.8,1.1,1.6,1.6,2.3
			c1.1,1.5,2.4,2.5,4.1,2.5c0.8,0,1.8-0.1,2.5-0.3c0.8-0.3,1.5-0.7,2.2-1.3c1.4-1.1,2.5-2.7,4-4.1c0.7-0.7,1.7-1.4,2.6-1.8
			c0.9-0.5,1.9-0.8,2.9-1.1c3.9-1.1,7.8-0.9,11.3-1.9c1.8-0.4,3.5-1.2,5.1-2.1c0.8-0.5,1.6-0.9,2.4-1.5c0.8-0.5,1.5-1.1,2.3-1.7
			c5.5-4.4,10-9.9,14.8-15.1c-2.4-0.6-4.8-1.3-7.1-2.1c-1.2-0.4-2.5-0.8-3.7-1.1c-1.2-0.3-2.5-0.6-3.7-0.8c-1.2-0.2-2.5-0.2-3.7,0.2
			c-1.2,0.3-2.2,1.2-2.9,2.3c0.4-1.2,1.4-2.3,2.7-2.8c1.3-0.6,2.7-0.7,4-0.6c2.7,0.1,5.3,0.8,7.8,1.4c2.5,0.6,5,1.4,7.5,1.8
			c2.5,0.5,5,0.8,7.3,0.3c1.1-0.3,2.1-0.8,2.9-1.6c0.8-0.8,1.4-1.8,1.6-2.9c0.2-1.1,0.1-2.3-0.2-3.5c-0.3-1.2-0.7-2.4-1.2-3.5
			c-1-2.3-2.3-4.6-3.7-6.8c-1.3-2.2-2.8-4.4-4-6.7c3.1,4.2,6.6,8.1,9.1,12.8c0.6,1.2,1.1,2.4,1.5,3.8c0.4,1.3,0.6,2.8,0.3,4.2
			c-0.5,3-3,5.4-5.8,6.1c-1.4,0.4-2.8,0.4-4.2,0.3c-1.4-0.1-2.7-0.3-4-0.6c-0.1,0-0.2-0.1-0.3-0.1c-4.4,5.6-8.5,11.5-14,16.3
			c-3,2.5-6.4,4.7-10.2,5.8c-3.9,1.2-7.8,1-11.3,2c-0.9,0.2-1.7,0.6-2.5,0.9c-0.8,0.4-1.5,0.9-2.1,1.5c-1.3,1.2-2.5,2.8-4.1,4.1
			c-0.4,0.3-0.8,0.6-1.3,0.9c2,2.3,2.8,9.5,2.8,11.3C826,167,813.7,180.7,807,190c-5.2,7.2-11.3,13.8-17.2,20.5
			c-6.1,6.9-40.6,40.3-28.4,49.4c2.4,1.8,3.7,2.6,6.1,3c5.8,1,7.5-2.7,11.3-3.3c1-0.2,1.8-0.2,2.4-0.1c-0.6-1.5-1.1-3-1.5-4.5
			c-0.6-2.1-1-4.2-1.2-6.3c-0.2-2.2-0.1-4.4,0.7-6.6c1.7-4.1,4.8-7.7,9-9.3c2.1-0.8,4.4-1,6.6-0.4c1.4,0.4,2.6,1.1,3.7,1.9
			c5.8-2.9,7.1-8.3,11.2-12.7c4.9-5.2,10.7-9.8,15.6-15c7.8-8.4,15.9-16.6,23.8-24.8c4.4-4.6,7.1-8.9,10-9.2c0-0.7-0.2-1.4-0.5-2.1
			c-0.3-1-0.8-1.9-1.3-2.9c-0.9-1.9-2-3.7-2.5-6c-0.4-2.4,0.3-4.6,1.1-6.6c0.8-2,1.9-3.9,2.8-5.7c0.5-0.9,0.8-1.8,1.1-2.8l0.9-3
			l1.8-6.1c1.2-4,2.6-8.1,4.5-11.9c-1.2,4.1-2.1,8.2-3,12.3c-0.1,0.4-0.2,0.8-0.3,1.2c6.2-3.8,12.9-6.9,19.9-9.2
			c7.4-2.3,15.3-3.7,23.1-2.9c3.9,0.4,7.8,1.5,11.4,3c3.6,1.5,7.1,3.4,10.3,5.5c6.5,4.2,12.3,9.5,17.4,15.3
			c-2.9-2.6-5.7-5.1-8.8-7.5c-3-2.4-6.2-4.5-9.4-6.5c-6.5-3.9-13.6-7-21.1-7.8c-3.7-0.4-7.5-0.3-11.3,0.2c-3.8,0.4-7.5,1.2-11.2,2.2
			c-7,2-13.8,4.7-20.3,7.8c-0.4,1.6-0.8,3.2-1.2,4.8c-0.3,1-0.6,2-0.9,3.1c-0.3,1-0.7,2.1-1.2,3.1c-0.9,2-2,3.8-2.8,5.6
			c-0.8,1.8-1.4,3.8-1.3,5.7c0.1,0.9,0.4,1.9,0.7,2.9c0.3,1,0.7,2,1.1,3c0.3,1,0.7,2,0.9,3.1c0.1,0.7,0.2,1.5,0.1,2.2
			c1.7,0,3.5,1.4,5.7,5c2.5,4.1,14.8,22.8,14.2,27.9c3.6,0,7.2,0.6,10.7,1.6c4,1.1,7.8,2.6,11.6,4.5c1.9,0.9,3.7,1.9,5.5,3
			c1.8,1.1,3.5,2.4,5.1,3.7c3.2,2.6,6.1,5.5,9.5,7.6c1.7,1.1,3.4,1.9,5.3,2.4c0.5,0.1,0.9,0.2,1.4,0.3c0.5,0.1,1,0.1,1.4,0.2l1.5,0
			l0.7,0c0.2,0,0.5-0.1,0.7-0.1c3.9-0.4,7.7-1.9,11.3-3.7c7.3-3.6,13.9-8.6,20.9-12.8c-6.6,4.8-12.9,10.2-20.2,14.2
			c-3.6,2-7.6,3.6-11.8,4.2c-0.3,0-0.5,0.1-0.8,0.1l-0.8,0l-1.6,0c-0.5,0-1.1-0.1-1.6-0.2c-0.5-0.1-1.1-0.1-1.6-0.3
			c-2.1-0.5-4.1-1.5-5.9-2.6c-3.6-2.3-6.6-5.2-9.7-7.8c-1.5-1.3-3.1-2.6-4.8-3.7c-1.7-1.1-3.4-2.1-5.2-3.1
			c-3.6-1.9-7.3-3.6-11.1-4.9c-3.4-1.2-6.8-2.1-10.4-2.4c-0.1,0.6-0.4,1-1.1,1.1c-18.7-0.3-37.8,6.4-53.3,16.6
			c-6.4,4.2-24.3,25.7-27.1,11.4c0.1-0.1,0.3-0.1,0.4-0.2c-1.1-0.6-2.2-1-3.4-1.2c-2-0.3-4,0.1-5.7,0.9c-3.6,1.7-6.3,4.9-7.8,8.6
			c-0.7,1.7-0.8,3.8-0.7,5.8c0.1,2,0.4,4.1,0.8,6.1c0.4,1.7,0.8,3.5,1.3,5.2c1.7,0.9,1.9,3.3,5.7,5.9c1.6,1.1,2.7,1.8,4.7,2.4
			c10.2,2.7,21.3-6.8,28.9-12.3c10.7-7.7,21.4-16,34.1-20.1c28.9-9.4,55.4,13.9,84.5,9.6c30.2-4.5,51.6-25.9,63.6-53
			c9.9-22.4,6.8-43.6,9.4-66.6C1016.8,95.9,995,71.7,975.4,52.7z"/>
		<path class="st4" d="M806.5,152.4c6.6,3,7.3-1.3,11.7-3.9c0.9-0.5,0.9-1.9,1.1-3c-0.3,0-0.7,0-1,0c-1.1-0.1-2.2-0.4-3.1-1.1
			c-0.9-0.6-1.6-1.5-2.2-2.3c-0.6-0.8-1-1.7-1.6-2.4c-0.5-0.8-1.1-1.5-1.7-2.2c-1.2-1.5-2.5-2.9-3.8-4.3c-1.7-1.9-3.4-3.7-5.1-5.6
			c0,2.9-1.3,7.5-1.3,9.7C799.8,143,800.6,149.7,806.5,152.4z"/>
	</g>
	<text transform="matrix(0.9978 6.680000e-02 -6.680000e-02 0.9978 677.1323 335.7396)" class="st1 st5 st6">Sophie Ianiro</text>
	<path class="st1" d="M303.6,359.4l-1,0l3-152.3c0-0.1,0.1-15.5,0.6-24.4c0.5-9.4,9.5-9.5,9.5-9.5l20.5,0l0,1l-20.5,0
		c-0.3,0-8.1,0.1-8.5,8.5c-0.5,8.9-0.6,24.2-0.6,24.3L303.6,359.4z"/>
	<g>
		<polygon class="st1" points="108.2,154.3 203.7,83.2 311,213.5 210.5,293.4 		"/>
		<polygon class="st1" points="9.1,231 4.8,233.8 108.9,374.6 203.7,297.3 205.7,297.6 210.5,293.4 108.2,154.3 		"/>
		<g>
			<path class="st2" d="M105.3,155.5c0,0-10.4-3.9-35.7,14.2S16,217.9,16,217.9l102.7,148.6c0,0,77.2-71.3,91.8-73.1L108.2,154.3
				L105.3,155.5z"/>
			<path class="st1" d="M118.6,367.3L15.3,217.9l0.3-0.3c0.3-0.3,28.7-30.4,53.7-48.3c23.6-16.9,34.3-14.8,35.9-14.3l3.1-1.3
				l103.1,140.2l-0.8,0.1c-14.4,1.8-90.8,72.3-91.6,73L118.6,367.3z M16.6,218l102.2,147.8c6.7-6.2,74.9-68.8,90.9-72.7L108,154.9
				l-2.8,1.2l-0.2-0.1c-0.1,0-2.7-0.9-8.2,0.4c-5.2,1.2-14.1,4.5-27,13.8C46.3,187,19.6,214.8,16.6,218z"/>
		</g>
		<g>
			<polygon class="st2" points="17.5,220.6 10.6,225.3 114.2,369.5 118.7,366.5 			"/>
			<path class="st1" d="M114.1,370.2l-0.3-0.4L9.9,225.2l7.7-5.3l101.8,146.8L114.1,370.2z M11.3,225.4l103,143.4l3.6-2.4
				L17.3,221.3L11.3,225.4z"/>
		</g>
		<g>
			<polygon class="st2" points="11.4,227.1 5.4,231.2 111,372.7 118.7,366.5 18.5,222.2 			"/>
			<path class="st1" d="M110.9,373.4l-0.3-0.4L4.6,231.1l6.5-4.4l7.5-5.2l100.8,145.1L110.9,373.4z M6.1,231.3l105,140.7l6.9-5.6
				L18.3,222.9l-6.7,4.6L6.1,231.3z"/>
		</g>
		<g>
			<polygon class="st2" points="210.5,293.4 310.3,216.2 202.7,85.7 108.2,154.3 			"/>
			<path class="st1" d="M210.4,294.1l-0.3-0.4L107.5,154.2l0.4-0.3L202.8,85l0.3,0.4l108,130.9L210.4,294.1z M108.9,154.4
				l101.7,138.4l99-76.6l-107-129.8L108.9,154.4z"/>
		</g>
		<g>
			<path class="st2" d="M304.2,218.2c0,0-85.6,62.2-93.7,75.3L108.2,154.3c0,0,2.7-8.3,38.5-34s52.7-34,52.7-34L304.2,218.2z"/>
			<path class="st1" d="M210.6,294.3l-102.9-140l0.1-0.2c0.1-0.3,3.2-8.7,38.7-34.2c35.4-25.4,52.6-34,52.8-34.1l0.4-0.2L305,218.3
				l-0.4,0.3c-0.9,0.6-85.6,62.3-93.6,75.1L210.6,294.3z M108.8,154.2l101.7,138.4c9.8-13.8,85.9-69.3,93-74.5L199.3,86.9
				c-2.6,1.4-19.7,10.5-52.3,33.8C115.1,143.6,109.5,152.7,108.8,154.2z"/>
		</g>
		<path class="st1" d="M205.7,297.6c0,0,21.3,29,23.5,30.2l-3.9,4.1c0,0-24.4-29.9-24.5-32.1l3-2.4L205.7,297.6z"/>
	</g>
	<path class="st2" d="M312.2,345.6c0,0,1.1-1.3,1.4-3c0.4-1.7-1-6,4.4-10.2c5.4-4.3,4.1-14.2,4.1-14.2s2.3-15.6,4.1-26.9
		s3-13.3,3-13.3s2.5-6.7,2.9-10.4c0.4-3.7,2.8-6.4,3.3-9.2c0.5-2.8,6-15.5,6.1-16.6c0.1-1.1,5-9.1,5-9.1s1.7,2.2,4.6,0.4
		c2.9-1.8,3.7-4.6,3.7-4.6s0.7-0.2,0.8,0.6c0.1,0.8,1.4,2.6-1.5,8.4s-3.6,6.7-3.6,6.7s-2.5,10.1-3,13.1c-0.5,2.9-2.8,13.8-2.8,13.8
		s-0.4,1.8-1.5,3.1s3.8-5.6,6.9-13.7c3.1-8.1,2.6-11.2,5.9-15.4c3.3-4.2,8.9-13.3,10.9-15.4c2-2.1,5.1-9.1,6.7-9.8s1.8-0.6,1.8-0.6
		l-3.2,5.1c0,0,0.3,1.5,2.3,1.8c2,0.2,2.9,0.1,3.8-1s3.2-4.2,3.2-4.2s1.9-0.5,0.9,4s-7.5,11.4-9.5,16.6c-2,5.1-4,7.2-4.5,9.3
		c-0.6,2.1-3.1,6.8-5.2,13.2c-2.1,6.4-4.1,8.5-4.1,8.5l1.7-2.2c0,0,7.6-10.3,12.6-17.5c5-7.1,6.1-8.3,6.1-8.3s7.1-8.8,7.2-10.1
		c0.1-1.3,6.2-12.4,8.1-12l-3.3,6c0,0-0.3,1.4,2,1.9c2.3,0.5,5.3-0.7,5.3-0.7l2.8-4.6c0,0,1.5-0.4,0.5,1.7c-1,2.1-2.7,8.6-4,10.7
		c-1.3,2.1-5,9.4-6.3,11.5c-1.3,2.1-3.8,8.1-5.2,10.2c-1.5,2.1-9.2,14.5-10.8,16.1c-1.6,1.6,11.8-14.3,11.8-14.3s3.9-5.1,6.9-8.9
		c3-3.9,6.4-8.6,6.4-8.6l3.4-4.4c0,0-2.6,4.8,0.5,4.7c3-0.1,6.9-2.3,6.9-2.3s1,1-0.3,5.3c-1.3,4.3-5.1,8.7-6.4,12.7
		c-1.3,4-4.3,9.5-7.7,14.8c-3.4,5.3-6,6.3-7,10.9c-1.1,4.5-3.9,11.1-4.8,13.5c-1,2.4,0,7.4-1,12.4l0.8-9.1c0,0,5.5-16.3,9.1-19.6
		c3.6-3.3,6.6-10.7,12.5-11.1l-2.5,5.5c0,0-1.6,2.7,0.4,3.7c2,1,3.8,2.5,3.8,2.5s-2.5,5.9-2.4,7.6c0.1,1.6-1.3,5.5-2.3,6.4
		s-4.3,8.7-5.1,10.7s-3.8,6.2-3.6,8c0.1,1.9-5.6,8.5-6.1,9.3c-0.5,0.7-14.6,15-19.6,20.3c-5,5.3-5.9,1.7-12.7,13.9
		c-6.8,12.1-8.3,14.7-8.3,14.7L312.2,345.6z"/>
	<g>
		<path class="st2" d="M110.7,147l-2.4-0.2l-0.2,0.1c0,0,0-0.1,0-0.1c-0.1-1.4-1.4-2.5-2.8-2.4c-1.4,0.1-2.5,1.4-2.4,2.8
			c0.1,0.8,0.5,1.5,1.1,1.9l0,0l-0.4,2l26.1,39.1c0,0,1.7-5.8,9.6-6.1L110.7,147z"/>
		<path class="st1" d="M129.8,191.4l-26.8-40.1l0.4-1.9c-0.6-0.5-1-1.3-1.1-2.1c-0.1-1.7,1.1-3.2,2.9-3.3c0.8-0.1,1.6,0.2,2.3,0.7
			c0.5,0.4,0.9,1,1,1.7l2.5,0.2l29.3,38.1l-1,0c-7.5,0.3-9.1,5.7-9.1,5.7L129.8,191.4z M104.1,151.1l25.5,38.2
			c0.8-1.6,3.2-4.9,8.7-5.5l-27.9-36.2l-2.1-0.2l-0.8,0.4l0-0.8l0-0.1c-0.1-1.2-1.1-2-2.3-1.9c-1.2,0.1-2,1.1-1.9,2.3
			c0,0.6,0.4,1.2,0.9,1.6l0.3,0.2L104.1,151.1z"/>
	</g>
	<path class="st1" d="M177.2,245.1c0,0,1.4-1.1-0.7-5c-2.1-3.9-37.2-55.9-37.2-55.9s-7.1-0.2-9.6,6.1c0,0,38.8,51.5,40.5,53.4
		c2.4,2.7,4.9,2.9,4.9,2.9L177.2,245.1z"/>
	<path class="st1" d="M312.5,345.2l-0.8-0.7c0,0,1-1.2,1.3-2.7c0.1-0.3,0.1-0.7,0.1-1.2c0-2.1,0.1-5.7,4.5-9.3
		c5.1-4,3.9-13.7,3.9-13.8l0-0.1l0-0.1c0-0.2,2.3-15.7,4.1-26.9c1.8-11.3,3-13.4,3.1-13.5l0,0c0,0,2.4-6.6,2.8-10.2
		c0.2-2.2,1.1-4,1.9-5.7c0.6-1.2,1.2-2.4,1.4-3.5c0.3-1.6,2.2-6.4,3.9-10.6c1-2.6,2.2-5.5,2.3-6c0.1-1.2,4.2-7.9,5-9.3l0.4-0.6
		l0.4,0.6c0.1,0.1,1.4,1.8,3.9,0.3c2.7-1.6,3.4-4.3,3.4-4.3l0.1-0.3l0.2-0.1c0.1,0,0.5-0.2,0.9,0.1c0.2,0.1,0.5,0.4,0.5,0.9
		c0,0.1,0,0.2,0.1,0.3c0.3,1,0.9,3.2-1.6,8.3c-2.4,4.8-3.4,6.3-3.6,6.7c-0.3,1-2.5,10.2-3,13c-0.3,2.1-1.6,8-2.3,11.4
		c1.3-2.4,2.8-5.3,4-8.4c1.2-3.2,1.9-5.6,2.4-7.6c0.8-3.1,1.5-5.4,3.5-8c1.6-2,3.7-5.1,5.7-8.1c2.1-3.2,4.2-6.2,5.2-7.3
		c0.8-0.9,1.9-2.8,3-4.6c1.8-3,2.9-4.9,3.9-5.3c1.7-0.7,2-0.6,2.1-0.6l0.6,0.2l-3.4,5.4c0.1,0.3,0.6,1.1,1.8,1.2
		c2,0.2,2.7,0,3.3-0.8c0.8-1.1,3.2-4.2,3.2-4.2l0.1-0.1l0.2,0c0.1,0,0.7-0.2,1.2,0.3c0.7,0.7,0.8,2,0.3,4.2
		c-0.6,2.5-2.7,5.6-4.9,8.9c-1.8,2.7-3.7,5.4-4.6,7.7c-1.1,2.9-2.2,4.8-3.1,6.3c-0.7,1.2-1.2,2.1-1.4,2.9c-0.2,0.9-0.8,2.2-1.5,3.8
		c-1,2.4-2.4,5.6-3.7,9.4c-2.1,6.5-4.2,8.6-4.3,8.7l-0.7-0.7c0,0,2-2.1,4-8.3c1.2-3.8,2.7-7.1,3.7-9.5c0.7-1.6,1.2-2.9,1.5-3.7
		c0.3-1,0.8-1.9,1.5-3.2c0.9-1.5,1.9-3.4,3-6.2c0.9-2.4,2.9-5.2,4.7-7.9c2.1-3.1,4.2-6.2,4.8-8.6c0.6-2.5,0.2-3.1,0-3.3
		c0,0-0.1-0.1-0.1-0.1c-0.5,0.7-2.3,3.1-3,4c-1,1.3-2.2,1.4-4.2,1.2c-2.4-0.2-2.8-2.1-2.8-2.2l0-0.2l2.6-4.1
		c-0.1,0.1-0.3,0.1-0.5,0.2c-0.7,0.3-2.2,2.8-3.4,4.9c-1.1,2-2.2,3.8-3.1,4.8c-1,1-3,4-5.1,7.2c-2,3-4.1,6.2-5.8,8.2
		c-1.9,2.4-2.5,4.5-3.3,7.6c-0.5,2-1.2,4.5-2.4,7.7c-1.8,4.7-4.2,9-5.7,11.5c-0.2,0.7-0.6,1.6-1.3,2.3c-0.1,0.1-0.4,0.5-0.8,0.2
		c-0.4-0.3-0.3-0.4,0.5-1.7c0.2-0.3,0.4-0.7,0.7-1.2c0.2-0.5,0.2-0.8,0.2-0.8c0-0.1,2.3-10.9,2.8-13.8c0.5-2.9,2.9-12.7,3-13.1
		l0.1-0.2c0,0,0.8-1,3.6-6.6c2.4-4.8,1.8-6.7,1.6-7.6c-0.1-0.2-0.1-0.3-0.1-0.5c0,0,0,0,0-0.1c-0.4,0.9-1.4,3-3.7,4.4
		c-2.3,1.4-4,0.6-4.7-0.1c-2.2,3.7-4.5,7.7-4.6,8.3c-0.1,0.5-0.8,2.5-2.3,6.2c-1.6,3.9-3.5,8.9-3.8,10.4c-0.2,1.3-0.8,2.5-1.5,3.8
		c-0.8,1.6-1.6,3.3-1.9,5.3c-0.4,3.7-2.8,10.3-2.9,10.6c-0.1,0.2-1.2,2.2-3,13.2c-1.7,10.8-4,25.7-4.1,26.9c0.1,1,1,10.3-4.3,14.6
		c-4.1,3.2-4.1,6.4-4.1,8.5c0,0.6,0,1-0.1,1.4C313.7,343.8,312.6,345.1,312.5,345.2z"/>
	<path class="st1" d="M384.5,310.1l-1-0.2c0.5-2.5,0.5-4.9,0.5-7.1c0-2.2,0-4.1,0.5-5.4l0.3-0.8c1.1-2.8,3.5-8.6,4.5-12.6
		c0.7-2.9,2-4.4,3.6-6.4c1-1.2,2.2-2.6,3.5-4.7c3.7-5.9,6.4-11.1,7.6-14.7c0.7-1.9,1.8-3.9,3.1-6c1.3-2.2,2.7-4.5,3.4-6.7
		c0.8-2.6,0.7-3.9,0.6-4.5c-1.1,0.6-4.1,2-6.6,2.1c-1,0-1.5-0.4-1.7-0.8c-0.3-0.5-0.3-1.1-0.2-1.7l-1.6,2c0,0-3.4,4.8-6.4,8.6
		c-3,3.9-6.9,8.9-6.9,8.9c-3.3,3.9-7.8,9.3-10.2,12.2c-0.7,1-1.3,1.8-1.7,2.2c-0.4,0.4-0.7,0.3-0.8,0.1c-0.1-0.1-0.3-0.2,0.1-0.8
		l0,0c0,0,0,0,0.1-0.1c0.3-0.4,0.8-1.1,1.7-2.2c1.8-2.6,4.5-6.7,6.4-9.8c1.2-1.9,2.2-3.5,2.7-4.1c0.8-1.1,1.8-3.3,2.8-5.5
		c0.9-1.9,1.8-3.7,2.4-4.7c0.7-1.1,2.1-3.7,3.4-6.2c1.2-2.2,2.3-4.3,2.9-5.2c0.7-1.1,1.6-3.9,2.4-6.3c0.6-1.8,1.1-3.4,1.6-4.3
		c0.4-0.8,0.3-1,0.3-1c0,0,0,0-0.1,0l-2.7,4.5l-0.2,0.1c-0.1,0.1-3.1,1.2-5.6,0.7c-1-0.2-1.8-0.6-2.1-1.2c-0.4-0.6-0.3-1.2-0.3-1.2
		l0.1-0.1l2.3-4.1c-2.4,2.8-6.1,9.6-6.1,10.5c-0.1,1.3-5.6,8.3-7.3,10.4c-0.1,0.1-1.3,1.3-6.1,8.3c-4.9,7.1-12.5,17.4-12.6,17.5
		l-0.8-0.6c0.1-0.1,7.7-10.4,12.5-17.5c4.9-7.1,6.1-8.3,6.2-8.4c3.4-4.2,6.9-9,7-9.8c0.1-1.4,5-10.2,7.4-12c0.5-0.4,0.9-0.5,1.3-0.4
		l0.7,0.1l-3.6,6.5c0,0.3,0.3,0.9,1.7,1.2c1.9,0.4,4.2-0.4,4.8-0.6l2.8-4.6l0.2-0.1c0.1,0,0.8-0.2,1.3,0.3c0.4,0.4,0.3,1.1-0.1,2.1
		c-0.4,0.8-0.9,2.5-1.5,4.2c-0.8,2.6-1.7,5.3-2.5,6.5c-0.6,0.9-1.7,3-2.8,5.2c-1.3,2.5-2.7,5.1-3.5,6.3c-0.6,1-1.4,2.7-2.3,4.6
		c-1,2.2-2.1,4.5-2.9,5.6c-0.4,0.6-1.4,2.2-2.7,4.1c-0.5,0.7-0.9,1.5-1.4,2.3c1.2-1.5,2.7-3.2,4.3-5.1c0,0,3.9-5.1,6.8-8.9
		c2.9-3.8,6.3-8.6,6.4-8.6l3.4-4.4l0.8,0.5c-0.6,1.1-1.2,3-0.8,3.7c0,0.1,0.2,0.3,0.8,0.3c2.9-0.1,6.6-2.2,6.6-2.2l0.3-0.2l0.3,0.3
		c0.2,0.2,1.2,1.4-0.2,5.8c-0.7,2.3-2.1,4.7-3.4,6.9c-1.2,2-2.4,4-3,5.8c-1.2,3.7-4,9-7.7,14.9c-1.3,2.1-2.5,3.5-3.6,4.8
		c-1.6,1.9-2.8,3.3-3.4,6c-1,4.1-3.4,10-4.5,12.8l-0.3,0.8c-0.5,1.1-0.5,2.9-0.5,5C385,305.1,385,307.6,384.5,310.1z"/>
	<path class="st1" d="M348.6,373.2l-0.9-0.5L356,358c4.5-8.1,6.5-9.3,8.7-10.7c1.1-0.7,2.3-1.5,4-3.3c2.5-2.6,7.1-7.4,11.3-11.7
		c3.9-4,8-8.2,8.3-8.6c0.1-0.1,0.3-0.4,0.7-0.9c3.6-4.5,5.4-7.2,5.3-8.1c-0.1-1.3,1.1-3.5,2.2-5.5c0.6-1,1.1-2,1.4-2.7
		c0.6-1.6,4-9.9,5.2-10.9c0.8-0.8,2.3-4.5,2.2-6c-0.1-1.5,1.7-6.1,2.2-7.5c-0.6-0.5-2-1.5-3.5-2.2c-0.6-0.3-1-0.8-1.2-1.4
		c-0.4-1.4,0.5-3,0.5-3l2.1-4.6c-3.4,0.6-5.8,3.8-8,6.8c-1.1,1.5-2.2,2.9-3.3,4c-3.5,3.2-8.9,19.2-8.9,19.4l-0.9-0.3
		c0.2-0.7,5.5-16.4,9.2-19.8c1.1-1,2.1-2.4,3.2-3.8c2.5-3.3,5.3-7.1,9.6-7.3l0.8,0l-2.9,6.2c-0.2,0.4-0.7,1.5-0.5,2.3
		c0.1,0.3,0.3,0.6,0.7,0.8c2,1,3.8,2.5,3.9,2.6l0.3,0.2l-0.1,0.3c-1,2.3-2.4,6.2-2.3,7.3c0.1,1.7-1.4,5.8-2.5,6.8
		c-0.8,0.7-3.9,7.8-4.9,10.5c-0.3,0.8-0.9,1.8-1.5,2.9c-1,1.7-2.2,3.9-2.1,4.9c0.1,1.5-2.6,5.1-5.5,8.8c-0.3,0.4-0.6,0.7-0.7,0.8
		c-0.3,0.4-3.2,3.4-8.4,8.7c-4.1,4.2-8.8,9-11.3,11.6c-1.8,1.9-3.1,2.7-4.2,3.4c-2.1,1.4-4,2.5-8.4,10.4L348.6,373.2z"/>
	<path class="st1" d="M507.5,443.5c0-0.1-2.7-11.5-12.9-18.7c-10.4-7.4-24.5-21.5-24.7-21.6c-0.1-0.1-11.3-9.8-15.1-10.7
		c-2.1-0.5-5-2.2-7.8-3.9c-2.6-1.6-5.3-3.2-6.5-3.2c-2.7,0-7.2-4.4-7.7-4.9l-0.2-0.2l0-0.3c0-0.2,0.3-1.6,1-2.5l-5.3-1.2
		c-1.6-0.5-3.5-0.9-3.9-0.8l-0.7,1l-0.1-1.4c0-0.1-0.4-5.8,5.6-7.3c6.5-1.6,11.6-0.7,11.8-0.6c0.2,0.1,5.2,1.4,9,4.5l0.1,0.1l0,0.1
		c0,0,0.6,1.3,1.6,1.4c0.2,0,5.2,0.7,12.7,4.7c2.7,1.4,3.9,1.3,4.5,0.9c0.9-0.6,0.7-2,0.7-2.1c0,0-0.8-5.2-5.9-11.7
		c-3.8-4.9-7.5-10.9-10.2-15.4c-1-1.7-1.9-3.2-2.6-4.2c-0.8-1.1-1.6-2.7-2.6-4.3c-1.9-3.2-4-6.9-5.4-7.9c-1.9-1.4-4.9-8.5-4.5-12.6
		c0.1-1.4,0.7-2.3,1.6-2.7l0.4-0.2l2.8,5.1c0.2,0.2,1,0.8,3,0.6c1.7-0.2,2-3.6,2-4.9l0-2.4l3.3,7.2c0,0.1,0.8,2.7,3.5,5
		c2.9,2.5,13.4,17,13.9,17.6l9.9,11.6c-2.1-6.3-5.3-15.3-5.8-16.2c-0.3-0.6-1.3-2-2.5-3.4c-1.7-2.2-3.5-4.6-3.9-5.7
		c-0.2-0.7-1.3-2.1-2.6-3.8c-1.8-2.5-4.1-5.5-5.8-8.7c-1.1-2.1-2.7-4-4.3-5.8c-2.5-2.9-4.9-5.6-4.7-8.8c0-1,0.2-2.1,1-2.2
		c0.8-0.1,1.8,1.3,3,4.3c0.3,0.4,2.6,3.2,6.3,0.6c0.9-0.6,1.3-1.3,1.4-2.2c0.3-2.7-2.8-5.9-2.8-6l-0.3-0.4l0.3-0.3
		c0.1-0.1,0.2-0.2,0.6-0.2c1.2,0.1,3.6,2.8,7.2,8c5.9,8.6,13.8,17.4,13.9,17.5c0.2,0.2,6,5.7,7.4,9.9c1.3,3.9,7.5,12.7,7.6,12.8
		c0.1,0.1,4.1,7.2,8.1,9.3l-0.5,0.9c-4.3-2.2-8.3-9.4-8.5-9.7c-0.2-0.3-6.4-8.9-7.7-13c-1.3-3.9-7.1-9.4-7.1-9.5
		c-0.1-0.1-8.1-8.9-14-17.6c-1.8-2.6-3.1-4.3-4.1-5.5c0.6,1.2,1.1,2.5,1,3.8c-0.1,1.2-0.8,2.2-1.9,3c-4.7,3.3-7.7-0.9-7.7-0.9
		l-0.1-0.1c-0.6-1.6-1.4-3.2-1.9-3.6c-0.1,0.2-0.1,0.5-0.2,1.1c-0.1,2.8,2.1,5.3,4.5,8.1c1.6,1.9,3.3,3.8,4.4,6
		c1.6,3.1,3.8,6.1,5.7,8.5c1.4,1.9,2.5,3.3,2.7,4.1c0.3,0.9,2.2,3.4,3.7,5.4c1.2,1.6,2.3,3,2.6,3.6c0.7,1.4,6.4,18.2,6.7,18.9
		l0.9,2.5L468,346.9c-0.1-0.2-11-15.1-13.8-17.5c-2.9-2.5-3.8-5.3-3.8-5.5l-1.5-3.2c-0.2,1.6-0.9,3.7-2.7,3.9
		c-2.7,0.4-3.9-0.9-3.9-0.9l-0.1-0.1l-2.4-4.2c-0.3,0.3-0.6,0.9-0.6,1.6c-0.4,3.6,2.4,10.5,4.1,11.6c1.6,1.2,3.7,4.8,5.7,8.2
		c0.9,1.6,1.8,3.1,2.5,4.2c0.7,1,1.6,2.5,2.6,4.2c2.7,4.4,6.4,10.5,10.2,15.3c5.3,6.8,6.1,12,6.1,12.2c0,0.1,0.2,2.1-1.2,3
		c-1.2,0.8-3,0.5-5.5-0.9c-7.3-4-12.1-4.6-12.3-4.6c-1.3-0.2-2.1-1.5-2.3-1.9c-3.6-2.9-8.4-4.2-8.5-4.2c0,0-5.1-0.9-11.4,0.6
		c-4.1,1-4.7,4.3-4.8,5.6c0.7,0,1.9,0.2,4.1,0.8l7.5,1.7l-1.2,0.6c-0.7,0.3-1,1.6-1.2,2.2c1.4,1.4,5,4.4,6.8,4.4c0,0,0,0,0,0
		c1.4,0,4,1.5,7,3.3c2.8,1.7,5.6,3.4,7.5,3.8c4.1,0.9,15.1,10.5,15.6,10.9c0.2,0.2,14.2,14.2,24.6,21.6
		c10.5,7.4,13.3,19.2,13.3,19.3L507.5,443.5z"/>
	<path class="st1" d="M522.6,357.4c-0.3-0.1-7.6-1.6-10.1-10.3c-1.2-4.1-2.4-6.8-3.4-9.1c-1-2.3-1.9-4.4-2.5-7.1
		c-1-5.1-9.2-11.8-9.2-11.9c-0.1-0.1-6.8-6.2-10.6-10c-0.8-0.8-1.5-1.4-2-1.8c0.5,0.6,0.7,1.2,0.7,1.7c0,1-0.9,1.7-1.6,2.1
		c-1.9,1.2-4.8,1.2-5,1.2l-0.1,0l-4-2.7c-0.1,0.8-0.1,2-0.1,2.7c0.1,0.4,2.2,2.1,3.7,3.3c2.5,1.9,5,4,5.5,5.2
		c0.8,2,6.5,9.1,7.5,10.1c0.9,0.9,3.2,4.2,4,8c0.7,3.5,2.1,12.1,2.1,12.2l-1,0.2c0-0.1-1.4-8.7-2.1-12.2c-0.7-3.3-2.8-6.5-3.7-7.5
		c-1-1-6.8-8.2-7.7-10.4c-0.4-1-3.1-3.1-5.2-4.8c-2.9-2.3-4-3.3-4.1-4c-0.1-1.2,0.2-3.6,0.2-3.7l0.1-0.8l5.1,3.4
		c0.6,0,2.8-0.1,4.2-1c0.7-0.5,1.1-0.9,1.1-1.3c0-0.6-0.7-1.5-2.1-2.6l-0.4-0.3l0.2-0.4c0-0.1,0.2-0.3,0.6-0.4
		c0.9-0.1,2.4,0.8,4.6,3c3.8,3.7,10.5,9.9,10.5,9.9c0.3,0.3,8.5,7,9.6,12.5c0.5,2.7,1.4,4.6,2.4,6.9c1,2.4,2.2,5,3.4,9.2
		c2.4,8.1,9.3,9.6,9.4,9.6L522.6,357.4z"/>
	<path class="st1" d="M513.6,348.6C513.5,348.6,513.5,348.6,513.6,348.6l0-1c0,0,0.5,0,0.9-0.4c0.4-0.5,0.9-1.5,0.7-3.9
		c-0.1-0.8-0.1-1.5-0.2-2.1c-0.3-3.5-0.5-5.3-1.7-6.6c-0.5-0.5-1-1.1-1.5-1.7c-1.1-1.3-2.4-3-3.2-3.2c-1.1-0.3-1.7-0.3-1.7-0.3
		l-0.1-1c0.1,0,0.7,0,2.1,0.4c1,0.3,2.3,1.9,3.7,3.5c0.5,0.6,1,1.2,1.4,1.7c1.5,1.6,1.6,3.5,2,7.2c0.1,0.6,0.1,1.3,0.2,2.1
		c0.2,2.2-0.1,3.8-1,4.7C514.6,348.5,513.8,348.6,513.6,348.6z"/>
	<path class="st1" d="M550.2,419.2c0-0.1-3.9-8.4-8.7-16.1c-4.6-7.4-3.9-13.5-3.7-14.4c-0.1-0.6-0.8-4-0.9-9.6
		c-0.1-5.6-3.1-12.3-4.7-15.9l-0.3-0.7c-0.8-1.9-0.9-4.5-1-6.7c-0.1-1.8-0.1-3.6-0.6-4.6c-1.1-2.4-2.6-11.6-2.9-15.6
		c-0.3-3.7-4-7.7-4.1-7.7c-0.3-0.3-7.2-7.9-7.8-8.9c-0.4-0.3-3-0.2-5.8,0.3l0.1,2.1l0,0.1c-0.1,0.3-0.5,1.1-7.2,0.5l0.1,0.6l-1,0.1
		l-0.2-1.9l0.6,0.1c2.7,0.3,6,0.4,6.7,0.1l-0.1-2.7l0.4-0.1c2.4-0.4,6.5-1,7.2,0.1c0.5,0.8,5.7,6.6,7.7,8.8c0.2,0.2,4,4.3,4.3,8.3
		c0.3,3.9,1.8,13,2.8,15.3c0.5,1.1,0.6,3,0.6,4.9c0.1,2.2,0.2,4.7,0.9,6.4l0.3,0.7c1.6,3.7,4.6,10.5,4.8,16.3c0.1,6,0.9,9.5,0.9,9.5
		l0,0.1l0,0.1c0,0.1-1.1,6.3,3.6,13.8c4.8,7.7,8.7,16.2,8.8,16.2L550.2,419.2z"/>
	<path class="st1" d="M546.2,410.3c0,0,4-0.8,5.3-0.2c1.3,0.6,19.8,41.5,19.8,41.5s11.9,5.6,16.1,14.4c4.2,8.8,10.6,8,12.5,13.8
		c1.9,5.7,1.4,14.6,1.4,14.6l8.1,12.9c0,0-46.2,25.5-63.5,16.6c0,0-19.5-24.1-22.9-41c-3.3-16.8-24-35.9-24-35.9s-6.2-8.1,4.2-14.2
		l7.3,12.2c0,0,18.6-3.4,26.3-10.9c7.8-7.5,13.8-15.1,13.8-15.1L546.2,410.3z"/>
	<path class="st1" d="M349.9,225.7l-4.1,6.7c0,0,1.2,3,5.5,0.7c4.2-2.3,4.4-6.4,4.4-6.4s-3.3-2.2-4.8-1.4L349.9,225.7z"/>
	<path class="st1" d="M375.1,217.7c0,0,1.1-1.2,3.2-0.9c2.2,0.3,4.1,2.8,4.1,2.8l-4.4,6.2c0,0-4.8,2.1-6.5-2.1L375.1,217.7z"/>
	<path class="st1" d="M394.2,221.4l0.9-1.1c0,0,2.2-0.7,4,0.2s3.6,2.7,3.6,2.7l-3.9,6.3c0,0-2.7,1.3-5.5,0.9
		c-2.8-0.5-2.9-2.2-2.9-2.2L394.2,221.4z"/>
	<path class="st1" d="M403,238.5c0,0-2.5,4-0.3,5.2c2.2,1.2,8.9-2.4,8.9-2.4s1.7-2.7,0.6-4.4c-1.1-1.7-5-1.7-5-1.7
		S404.3,235.8,403,238.5z"/>
	<path class="st1" d="M405.8,269.9c0,0,4.2-0.8,5.6,0.7c1.4,1.4,1,2.9,1,2.9l-4.7,9l-4.7-3c0,0-1.1-0.8,0.2-3.7
		C404.4,273,405.8,269.9,405.8,269.9z"/>
	<path class="st1" d="M425.3,374.1c0,0-4.1,1.1-2.2,2.6l11.3,3.9c0,0,0.2-2.9,1.8-3.6L425.3,374.1z"/>
	<path class="st1" d="M439.6,319l-0.4-1.1c0,0-0.1-3.1,3.8-3.8c3.9-0.7,5,1.5,5,1.5l1.1,2.4c0,0,0.5,4.6-1.4,6.3c0,0-1.7,1.3-5-0.4
		L439.6,319z"/>
	<path class="st1" d="M449.8,303.5c0,0-1.1-4.3,3.6-5.1c4.7-0.8,5.6,1.2,5.6,1.2s5.9,5.7,1.1,9.5c-4.8,3.8-8-1.5-8-1.5L449.8,303.5z
		"/>
	<path class="st1" d="M473.1,307.9c0,0,1-2.9,4.6-3.4c3.6-0.5,5,0.3,5,0.3s5,3.6,1.2,6s-5.2,1.2-5.2,1.2L473.1,307.9z"/>
	<path class="st1" d="M510.1,318.6l-9.3,1.4c0,0,0.5,0.3,0.7,1.8l7.6,0.4c0,0,1.3,0.3,1.1-1.4L510.1,318.6z"/>
	<path class="st1" d="M575.2,164.8l-0.5,0L320.9,163L309.8,58.9l0.8,0l299.6,1.5L575.2,164.8z M322.2,161.5l251.9,1.7l34-101.4
		l-296.7-1.5L322.2,161.5z"/>
	<path class="st1" d="M581.8,174.3c-0.1,0-0.3,0-0.4,0c-3.8-0.2-264.9-2.1-270.3-2.1c-0.3,0.1-1.4,0.1-2.4-0.5
		c-0.7-0.5-1.1-1.4-1.3-2.5c-0.3-2.8-16.8-114.3-16.9-115.4l0-0.1l0-0.1c0-0.2,1.1-4.4,6.3-5.6c4.8-1,310.5,0.6,323.7,0.6
		c1,0,8.9-0.2,11.1,2.4c0.6,0.7,0.7,1.5,0.5,2.3c-1.1,4.7-3.4,10.7-3.5,11l-41.6,106.8C586.7,172.2,585,174.3,581.8,174.3z
		 M311,170.7c10.9,0.1,266.7,1.9,270.5,2.1c3.2,0.2,4.2-2.2,4.2-2.2l41.6-106.8c0-0.1,2.3-6.1,3.4-10.8c0.1-0.4,0-0.7-0.2-1
		c-1.3-1.6-6.8-2-9.9-1.9l0,0c-110-0.6-319.1-1.5-323.4-0.7c-3.8,0.8-4.9,3.7-5.1,4.3c1,6.5,16.6,112.5,16.9,115.3
		c0.1,0.7,0.3,1.1,0.6,1.4c0.5,0.4,1.3,0.3,1.3,0.3L311,170.7z"/>
	<polygon class="st1" points="336.3,171.6 336.3,180.8 557.1,182.6 557.4,173 	"/>
	<path class="st1" d="M573,377.4c-13.5,0-35.9-0.6-36.2-0.6l0-1.5c0.4,0,32.5,0.8,41.3,0.6c1.9-0.1,3.6-0.8,4.8-2.1
		c3.2-3.4,2.9-9.9,2.9-9.9c-0.1-1.7,0.8-172.7,0.2-179.9c-0.5-6.5-7.9-6.8-8.2-6.8l-20.9,0l0-1.5l20.9,0c0.1,0,9.1,0.3,9.7,8.2
		c0.6,7.2-0.3,178.2-0.2,180c0,0.3,0.3,7.1-3.3,11c-1.5,1.6-3.5,2.5-5.8,2.6C577,377.4,575.2,377.4,573,377.4z"/>
	<path class="st1" d="M492.1,314.1c0-0.1-0.3-10.2-0.5-13.7c0-0.8-0.3-1.5-0.8-1.9c-0.8-0.7-2.1-0.7-2.1-0.7l-85.2-1.2l0-1.5
		l85.2,1.2c0,0,1.8-0.1,3.1,1c0.8,0.7,1.2,1.7,1.3,2.9c0.2,3.5,0.5,13.6,0.5,13.7L492.1,314.1z"/>
	<path class="st1" d="M464,365.7c-0.6,0-57.1-0.3-61.1-0.4c-1.5,0-2.7-0.5-3.4-1.4c-0.9-1.2-0.7-2.6-0.7-3l0.8-59l1.5,0l-0.8,59.2
		c0,0-0.2,1.1,0.4,1.8c0.4,0.5,1.2,0.8,2.2,0.8c4,0.1,60.5,0.4,61.1,0.4L464,365.7z"/>
	<path class="st7" d="M125.9,157.1l-0.6-0.8c0.4-0.3,39.9-31.8,76.3-54.2l0.5,0.9C165.7,125.3,126.3,156.8,125.9,157.1z"/>
	<path class="st7" d="M130.3,162.9l-0.6-0.8c0.4-0.4,45.3-37,75.4-54.2l0.5,0.9C175.5,126,130.7,162.6,130.3,162.9z"/>
	<path class="st7" d="M134.1,168.2l-0.6-0.8c0.4-0.4,45.3-37,75.4-54.2l0.5,0.9C179.3,131.3,134.5,167.8,134.1,168.2z"/>
	<path class="st7" d="M138.1,174.1l-0.6-0.8c0.4-0.4,45.3-37,75.4-54.2l0.5,0.9C183.3,137.2,138.5,173.7,138.1,174.1z"/>
	<path class="st7" d="M142.3,179.5l-0.6-0.8c0.4-0.4,45.3-37,75.4-54.2l0.5,0.9C187.5,142.6,142.7,179.2,142.3,179.5z"/>
	<path class="st7" d="M146.9,184.8l-0.6-0.8c0.4-0.4,45.3-37,75.4-54.2l0.5,0.9C192.1,147.9,147.3,184.4,146.9,184.8z"/>
	<path class="st7" d="M151.1,190l-0.6-0.8c0.4-0.4,45.3-37,75.4-54.2l0.5,0.9C196.3,153.1,151.5,189.7,151.1,190z"/>
	<path class="st7" d="M155.1,194.9l-0.6-0.8c0.4-0.4,45.3-37,75.4-54.2l0.5,0.9C200.3,157.9,155.5,194.5,155.1,194.9z"/>
	<path class="st7" d="M158.6,200.5l-0.6-0.8c0.4-0.4,45.3-37,75.4-54.2l0.5,0.9C203.9,163.6,159.1,200.2,158.6,200.5z"/>
	<path class="st7" d="M162.6,205.8L162,205c0.4-0.4,45.3-37,75.4-54.2l0.5,0.9C207.9,168.9,163.1,205.4,162.6,205.8z"/>
	<path class="st7" d="M166.6,211.2l-0.6-0.8c0.4-0.4,45.3-37,75.4-54.2l0.5,0.9C211.9,174.3,167.1,210.9,166.6,211.2z"/>
	<path class="st7" d="M171,216.1l-0.6-0.8c0.4-0.4,45.3-37,75.4-54.2l0.5,0.9C216.3,179.1,171.5,215.7,171,216.1z"/>
	<path class="st7" d="M174.4,222.2l-0.6-0.8c0.4-0.4,45.3-37,75.4-54.2l0.5,0.9C219.6,185.2,174.8,221.8,174.4,222.2z"/>
	<path class="st7" d="M178.4,227.6l-0.6-0.8c0.4-0.4,45.3-37,75.4-54.2l0.5,0.9C223.6,190.7,178.8,227.2,178.4,227.6z"/>
	<path class="st7" d="M182.9,233.6l-0.6-0.8c0.4-0.4,45.3-37,75.4-54.2l0.5,0.9C228.1,196.7,183.3,233.2,182.9,233.6z"/>
	<path class="st7" d="M186.3,239.6l-0.6-0.8c0.4-0.4,45.3-37,75.4-54.2l0.5,0.9C231.6,202.7,186.8,239.2,186.3,239.6z"/>
	<path class="st7" d="M192,244.1l-0.6-0.8c0.4-0.4,45.3-37,75.4-54.2l0.5,0.9C237.2,207.2,192.4,243.7,192,244.1z"/>
	<path class="st7" d="M195.9,249.9l-0.6-0.8c0.4-0.4,45.3-37,75.4-54.2l0.5,0.9C241.2,213,196.4,249.5,195.9,249.9z"/>
	<path class="st7" d="M199.9,255.3l-0.6-0.8c0.4-0.4,45.3-37,75.4-54.2l0.5,0.9C245.2,218.4,200.4,255,199.9,255.3z"/>
	<path class="st7" d="M205,260.4l-0.6-0.8c0.4-0.4,45.3-37,75.4-54.2l0.5,0.9C250.2,223.5,205.4,260,205,260.4z"/>
	<path class="st7" d="M208.6,265.6l-0.6-0.8c0.4-0.4,45.3-37,75.4-54.2l0.5,0.9C253.9,228.7,209.1,265.3,208.6,265.6z"/>
	<path class="st7" d="M212.8,270l-0.6-0.8c0.4-0.4,45.3-37,75.4-54.2l0.5,0.9C258,233.1,213.2,269.6,212.8,270z"/>
	<path class="st7" d="M33.8,222.5l-0.7-0.7c0.1-0.1,13.3-13.3,29.1-26.4c21.2-17.7,36.7-26.9,46-27.5l0.1,1
		C86.5,170.3,34.3,222,33.8,222.5z"/>
	<path class="st7" d="M38,227.8l-0.7-0.7c0.1-0.1,13.3-13.3,29.1-26.4c21.2-17.7,36.7-26.9,46-27.5l0.1,1
		C90.7,175.6,38.5,227.3,38,227.8z"/>
	<path class="st7" d="M42.4,234.1l-0.7-0.7c0.1-0.1,13.3-13.3,29.1-26.4c21.2-17.7,36.7-26.9,46-27.5l0.1,1
		C95.1,181.8,42.9,233.5,42.4,234.1z"/>
	<path class="st7" d="M46.5,240.1l-0.7-0.7c0.1-0.1,13.3-13.3,29.1-26.4c21.2-17.7,36.7-26.9,46-27.5l0.1,1
		C99.2,187.8,47,239.5,46.5,240.1z"/>
	<path class="st7" d="M50.7,246.3l-0.7-0.7c0.1-0.1,13.3-13.3,29.1-26.4c21.2-17.7,36.7-26.9,46-27.5l0.1,1
		C103.4,194,51.2,245.8,50.7,246.3z"/>
	<path class="st7" d="M53.4,253l-0.7-0.7c0.1-0.1,13.3-13.3,29.1-26.4c21.2-17.7,36.7-26.9,46-27.5l0.1,1
		C106.1,200.7,54,252.5,53.4,253z"/>
	<path class="st7" d="M56.9,259l-0.7-0.7c0.1-0.1,13.3-13.3,29.1-26.4c21.2-17.7,36.7-26.9,46-27.5l0.1,1
		C109.6,206.7,57.4,258.5,56.9,259z"/>
	<path class="st7" d="M61.3,264.5l-0.7-0.7c0.1-0.1,13.3-13.3,29.1-26.4c21.2-17.7,36.7-26.9,46-27.5l0.1,1
		C114,212.3,61.8,264,61.3,264.5z"/>
	<path class="st7" d="M65.9,269.6l-0.7-0.7c0.1-0.1,13.3-13.3,29.1-26.4c21.2-17.7,36.7-26.9,46-27.5l0.1,1
		C118.6,217.3,66.4,269.1,65.9,269.6z"/>
	<path class="st7" d="M69.8,275.1l-0.7-0.7c0.1-0.1,13.3-13.3,29.1-26.4c21.2-17.7,36.7-26.9,46-27.5l0.1,1
		C122.5,222.9,70.3,274.6,69.8,275.1z"/>
	<path class="st7" d="M74.2,280.4l-0.7-0.7c0.1-0.1,13.3-13.3,29.1-26.4c21.2-17.7,36.7-26.9,46-27.5l0.1,1
		C126.9,228.2,74.7,279.9,74.2,280.4z"/>
	<path class="st7" d="M78.1,286.2l-0.7-0.7c0.1-0.1,13.3-13.3,29.1-26.4c21.2-17.7,36.7-26.9,46-27.5l0.1,1
		C130.8,233.9,78.6,285.7,78.1,286.2z"/>
	<path class="st7" d="M82.5,292.7l-0.7-0.7c0.1-0.1,13.3-13.3,29.1-26.4c21.2-17.7,36.7-26.9,46-27.5l0.1,1
		C135.2,240.4,83,292.1,82.5,292.7z"/>
	<path class="st7" d="M86.2,298.2l-0.7-0.7c0.1-0.1,13.3-13.3,29.1-26.4c21.2-17.7,36.7-26.9,46-27.5l0.1,1
		C138.9,245.9,86.7,297.7,86.2,298.2z"/>
	<path class="st7" d="M90.8,304l-0.7-0.7c0.1-0.1,13.3-13.3,29.1-26.4c21.2-17.7,36.7-26.9,46-27.5l0.1,1
		C143.5,251.7,91.3,303.4,90.8,304z"/>
	<path class="st7" d="M95.2,308.6l-0.7-0.7c0.1-0.1,13.3-13.3,29.1-26.4c21.2-17.7,36.7-26.9,46-27.5l0.1,1
		C147.9,256.3,95.7,308,95.2,308.6z"/>
	<path class="st7" d="M99.8,314.1l-0.7-0.7c0.1-0.1,13.3-13.3,29.1-26.4c21.2-17.7,36.7-26.9,46-27.5l0.1,1
		C152.5,261.9,100.3,313.6,99.8,314.1z"/>
	<path class="st7" d="M103,320.1l-0.7-0.7c0.1-0.1,13.3-13.3,29.1-26.4c21.2-17.7,36.7-26.9,46-27.5l0.1,1
		C155.7,267.9,103.5,319.6,103,320.1z"/>
	<path class="st7" d="M107.6,324.3l-0.7-0.7c0.1-0.1,13.3-13.3,29.1-26.4c21.2-17.7,36.7-26.9,46-27.5l0.1,1
		C160.3,272,108.2,323.7,107.6,324.3z"/>
	<path class="st7" d="M111.8,330l-0.7-0.7c0.1-0.1,13.3-13.3,29.1-26.4c21.2-17.7,36.7-26.9,46-27.5l0.1,1
		C164.5,277.8,112.3,329.5,111.8,330z"/>
	<path class="st7" d="M117.6,334.6l-0.7-0.7c0.1-0.1,13.3-13.3,29.1-26.4c21.2-17.7,36.7-26.9,46-27.5l0.1,1
		C170.3,282.4,118.1,334.1,117.6,334.6z"/>
	<path class="st7" d="M122.6,339.3l-0.7-0.7c0.1-0.1,13.3-13.3,29.1-26.4c21.2-17.7,36.7-26.9,46-27.5l0.1,1
		C175.3,287,123.2,338.7,122.6,339.3z"/>
	<rect x="365.4" y="373.5" class="st1" width="58.8" height="1"/>
	
		<rect x="458.6" y="363.2" transform="matrix(3.137650e-03 -1 1 3.137650e-03 85.1324 830.4105)" class="st1" width="1" height="18.7"/>
	<path class="st1" d="M355.1,360.1l-7.4,13.7c0,0-33.4-18.3-35.4-27.7c0,0,0.1-7.5,1.6-7.5c0,0-1.7-2.1-3.9,1.3
		c-2.2,3.5-7.4,16.5-7.4,16.5s0.3,1-7.9,9.2c-8.2,8.1-5.5,7.3-8.6,10.1c-3.1,2.9-34.7,36.3-34.7,36.3l-14.5,16.7
		c0,0-32.2,46.1-35.8,56.6c-3.6,10.5-9.6,34.3-9.6,34.3s97.5,13.9,87.9,5.9c-9.6-8,24.5-44.7,28.8-53.3c4.3-8.5,20.8-38.4,20.8-38.4
		l3-4.8l20.8-31.7c0,0,10.9-20.2,13.3-21.1C368.2,375.5,358.3,361.4,355.1,360.1z"/>
	
		<ellipse transform="matrix(0.9971 -7.616768e-02 7.616768e-02 0.9971 -10.7845 52.3484)" class="st4" cx="680.9" cy="167.6" rx="37.7" ry="38.6"/>
	
		<ellipse transform="matrix(0.9971 -7.616768e-02 7.616768e-02 0.9971 -10.824 52.4101)" class="st2" cx="681.7" cy="168.1" rx="34.5" ry="35.2"/>
	
		<ellipse transform="matrix(0.9971 -7.616768e-02 7.616768e-02 0.9971 -10.5064 52.1301)" class="st4" cx="678.2" cy="163.8" rx="30.7" ry="31.3"/>
	<path class="st4" d="M660.1,136.1l-25.9,14.3c0,0-22,12.3-15.5,35.5c6.6,23.2,28.1,26.6,28.1,26.6s4.7,3.4,25.9-2l32-12.3
		c0,0-44.5,19.3-57.7-16.7C637,154.1,660.1,136.1,660.1,136.1z"/>
	<path class="st1" d="M716.4,214.2c-2.8-4.5-13.7-15.3-13.7-15.3l-32.9,12c0,0,13.2,20,19,19.7c5.8-0.3,11.8-0.6,19.4-4
		C715.8,223.2,719.3,218.6,716.4,214.2z M694.4,222l-12.2-15.1l8.2-2.2l13.6,15.3C704.1,220,699.6,222.3,694.4,222z"/>
	
		<ellipse transform="matrix(0.9971 -7.616768e-02 7.616768e-02 0.9971 -11.9044 52.2809)" class="st2" cx="679.4" cy="182.2" rx="6.8" ry="7"/>
	
		<ellipse transform="matrix(0.9971 -7.616768e-02 7.616768e-02 0.9971 -10.4285 51.5037)" class="st2" cx="670" cy="162.5" rx="4.1" ry="4.2"/>
</g>
<g id="Calque_5">
</g>
</svg>
