<svg width="54px" height="34px" viewBox="0 0 54 34" version="1.1" xmlns="http://www.w3.org/2000/svg" xmlns:xlink="http://www.w3.org/1999/xlink">
    <!-- Generator: Sketch 51.2 (57519) - http://www.bohemiancoding.com/sketch -->
    <desc>Created with Sketch.</desc>
    <defs></defs>
    <g id="header" stroke="none" stroke-width="1" fill="none" fill-rule="evenodd">
        <g id="Desktop-Copy-2" transform="translate(-236.000000, -780.000000)" fill="#dbdbdb" fill-rule="nonzero">
            <g id="Quote-+-app-stores" transform="translate(236.000000, 780.000000)">
                <g id="Group-13">
                    <path d="M0.0211498112,22.3982473 C0.0161141418,22.5326193 0,22.6640701 0,22.8003895 C0,22.8461538 0.00604280319,22.8899708 0.00704993705,22.9347614 C0.00604280319,23.0243427 0,23.1129503 0,23.2025316 L0.0201426773,23.1888997 C0.233655057,29.1927945 5.32270248,34 11.5840537,34 C17.981368,34 23.1681074,28.9863681 23.1681074,22.8003895 C23.1681074,17.1567673 18.8454889,12.5014606 13.2287033,11.7273612 C14.6245909,7.25316456 18.913974,3.99805258 24,3.99805258 L24,0 C11.0150231,0.000973709834 0.460260176,9.94839338 0.0211498112,22.3982473 Z" id="Shape"></path>
                    <path d="M30.0211507,22.3982473 C30.0161148,22.5326193 30,22.6640701 30,22.8003895 C30,22.8461538 30.0070502,22.8899708 30.0070502,22.9347614 C30.0060431,23.0243427 30,23.1129503 30,23.2025316 L30.0211507,23.1888997 C30.234672,29.1927945 35.323933,34 41.5845398,34 C47.9831298,34 53.1690797,28.9863681 53.1690797,22.8003895 C53.1690797,17.1567673 48.8462797,12.5014606 43.2292585,11.7273612 C44.6252046,7.25316456 48.9147677,3.99805258 54,3.99805258 L54,0 C41.0144782,0.000973709834 30.4612867,9.94839338 30.0211507,22.3982473 Z" id="Shape"></path>
                </g>
            </g>
        </g>
    </g>
</svg>
